  <svg
          version="1.1"
          viewBox="0 0 48 48"
          aria-hidden="true"
          focusable="false"
        >
          <path
            d="M23.8 48c-6.5 0-14.6-1.5-18.1-5C4.6 41.9 4 40.6 4 39.3c0-8.3 6.2-15.5 14.5-17.7-3.7-1.9-6.2-5.7-6.2-10.2C12.4 5.1 17.5 0 23.8 0s11.5 5.1 11.5 11.5c0 4.4-2.5 8.2-6.2 10.2 8.3 2.2 14.5 9.4 14.5 17.7 0 5.5-10.2 8.6-19.8 8.6zm0-25.1C14.2 22.9 6 30.4 6 39.3c0 .8.4 1.6 1.1 2.3 2.6 2.6 9.4 4.4 16.6 4.4h.1c8.6 0 17.8-2.7 17.8-6.7 0-8.9-8.1-16.4-17.8-16.4zm0-20.9c-5.2 0-9.5 4.2-9.5 9.5s4.2 9.5 9.5 9.5c5.2 0 9.5-4.2 9.5-9.5S29 2 23.8 2z"
          ></path>
        </svg>