<svg version="1.1" viewBox="0 0 24 24" aria-hidden="true" data-test="icon-line-graphic-customercare" focusable="false" class="c-fuOFUJ">
  <path d="M22.52 14A9.07 9.07 0 106 7.23a8.43 8.43 0 00-3.51 2.13 8.6 8.6 0 00-1 10.92l-.71 2.93 2.93-.73a8.58 8.58 0 0010.93-1 8.62 8.62 0 002.12-3.58 8.5 8.5 0 003.12-1.27l2.74.69a.69.69 0 00.44-.15.4.4 0 00.15-.44zm-8.62 6.8a7.57 7.57 0 01-9.65.89l-.34-.25-1.81.39.44-1.76-.25-.34a7.58 7.58 0 1111.61 1.08zm6-5.19a.38.38 0 00-.4.05 7.74 7.74 0 01-2.5 1.17 8.55 8.55 0 00-2.37-7.47A8.67 8.67 0 007.12 7 7.81 7.81 0 019.2 3.33a8.16 8.16 0 0111.46 0 8.1 8.1 0 01.93 10.29.5.5 0 00-.05.39l.46 2.15zm-5.9-.28a5.2 5.2 0 01-5.29 5.14 5.24 5.24 0 01-5.29-5.14.47.47 0 01.49-.49.47.47 0 01.49.49 4.25 4.25 0 004.31 4.16A4.25 4.25 0 0013 15.33a.5.5 0 011 0z"></path>
</svg>