 <svg
              xmlns="http://www.w3.org/2000/svg"
              width="24"
              height="24"
              fill="#0000a3"
              viewBox="0 0 24 24"
              focusable="false"
              aria-hidden="true">
              <path
                fill="0003"
                fill-rule="evenodd"
                d="M2 6a1 1 0 0 1 1-1h18a1 1 0 1 1 0 2H3a1 1 0 0 1-1-1m0 6a1 1 0 0 1 1-1h18a1 1 0 1 1 0 2H3a1 1 0 0 1-1-1m0 6a1 1 0 0 1 1-1h18a1 1 0 1 1 0 2H3a1 1 0 0 1-1-1"
                clip-rule="evenodd"
              ></path>
            </svg>