     <svg
                xmlns="http://www.w3.org/2000/svg"
                width="24"
                height="24"
                fill="none"
                viewBox="0 0 24 24"
                focusable="false"
                aria-hidden="true"
              >
                <path
                  fill="#0000a3"
                  fill-rule="evenodd"
                  d="M14.461 2.495a6.5 6.5 0 0 1 8.494 8.494c-.196.472-.514.91-.81 1.264-.305.363-.634.696-.89.953l-8.5 8.498a1 1 0 0 1-1.414 0l-8.498-8.498C1.74 12.103.55 10.354.55 8.5a6.5 6.5 0 0 1 11.097-4.597l.353.353.352-.352a6.5 6.5 0 0 1 2.11-1.41M16.95 4a4.5 4.5 0 0 0-3.182 1.319l-1.06 1.06a1 1 0 0 1-1.414 0l-1.06-1.06A4.5 4.5 0 0 0 2.55 8.5c0 1.065.746 2.33 1.707 3.29l7.791 7.792 7.792-7.791c.255-.255.529-.534.77-.822.249-.298.416-.552.497-.747a4.5 4.5 0 0 0-2.436-5.88A4.5 4.5 0 0 0 16.95 4"
                  clip-rule="evenodd"
                ></path>
              </svg>