
<svg xmlns="http://www.w3.org/2000/svg" width="24" height="24" fill="#0000a3" viewBox="0 0 24 24" focusable="false" aria-hidden="true"><path fill="#0000a3
" fill-rule="evenodd" d="M11.996 6.352a5.65 5.65 0 1 0 .001 11.298 5.65 5.65 0 0 0-.001-11.298m0 9.31a3.666 3.666 0 1 1-.001-7.332 3.666 3.666 0 0 1 0 7.332" clip-rule="evenodd"></path><path fill="#0000a3" d="M19.185 6.125a1.318 1.318 0 1 1-2.637 0 1.318 1.318 0 0 1 2.637 0"></path><path fill="#0000a3" fill-rule="evenodd" d="M11.996 1c-2.986 0-3.361.013-4.536.065-1.17.053-1.968.24-2.667.511a5.4 5.4 0 0 0-1.947 1.27 5.45 5.45 0 0 0-1.27 1.947c-.27.699-.458 1.497-.51 2.672C1.012 8.635 1 9.01 1 11.995s.013 3.362.065 4.536c.053 1.17.24 1.969.511 2.671a5.4 5.4 0 0 0 1.27 1.947 5.45 5.45 0 0 0 1.947 1.27c.699.271 1.497.459 2.672.511 1.174.053 1.545.066 4.535.066s3.361-.013 4.535-.066c1.17-.052 1.969-.24 2.672-.51a5.36 5.36 0 0 0 1.947-1.27 5.45 5.45 0 0 0 1.27-1.948c.27-.698.458-1.497.51-2.671.053-1.174.066-1.545.066-4.535s-.013-3.361-.066-4.536c-.052-1.17-.24-1.968-.51-2.671a5.4 5.4 0 0 0-1.27-1.947 5.45 5.45 0 0 0-1.947-1.27c-.699-.27-1.498-.459-2.672-.51C15.357 1.012 14.981 1 11.995 1m0 1.982c2.937 0 3.282.013 4.443.065 1.074.048 1.655.227 2.043.38.515.2.882.436 1.266.82.384.385.624.751.82 1.266.15.389.332.97.38 2.043.053 1.161.066 1.506.066 4.444s-.013 3.283-.066 4.444c-.048 1.073-.227 1.654-.38 2.043-.2.515-.436.881-.82 1.265a3.36 3.36 0 0 1-1.266.821c-.388.148-.969.332-2.043.38-1.16.052-1.506.065-4.443.065-2.938 0-3.283-.013-4.444-.065-1.074-.048-1.654-.227-2.043-.38a3.4 3.4 0 0 1-1.266-.82 3.36 3.36 0 0 1-.82-1.267c-.149-.388-.332-.969-.38-2.042-.053-1.161-.066-1.506-.066-4.444s.013-3.283.066-4.444c.048-1.073.227-1.654.38-2.043.2-.515.436-.881.82-1.265a3.36 3.36 0 0 1 1.266-.821c.389-.148.97-.332 2.043-.38 1.161-.057 1.51-.065 4.444-.065" clip-rule="evenodd"></path></svg>