 <svg
          xmlns="http://www.w3.org/2000/svg"
          width="24"
          height="24"
          fill="none"
          viewBox="0 0 24 24"
          focusable="false"
          aria-hidden="true"
        >
          <path
            fill="#0000a3"
            fill-rule="evenodd"
            d="M9.172 1.172A4 4 0 0 1 16 4v8a4 4 0 1 1-8 0V4a4 4 0 0 1 1.172-2.828M12 2a2 2 0 0 0-2 2v8a2 2 0 0 0 4 0V4a2 2 0 0 0-2-2M5 9a1 1 0 0 1 1 1v2a6 6 0 1 0 12 0v-2a1 1 0 1 1 2 0v2a8 8 0 0 1-7 7.937V22h3a1 1 0 1 1 0 2H8a1 1 0 1 1 0-2h3v-2.063A8 8 0 0 1 4 12v-2a1 1 0 0 1 1-1"
            clip-rule="evenodd"
          ></path>
        </svg>