<svg xmlns="http://www.w3.org/2000/svg" width="24" height="24" fill="none" viewBox="0 0 24 24" focusable="false" aria-hidden="true">
  <path fill="currentColor" fill-rule="evenodd" d="M12.424 1.007C6.27.782 1.073 5.72 1.001 11.884c-.054 4.72 2.86 8.755 6.993 10.38-.1-.875-.18-2.211.036-3.16.198-.857 1.29-5.469 1.29-5.469s-.325-.659-.325-1.634c0-1.534.884-2.671 1.994-2.671.939 0 1.39.704 1.39 1.552 0 .93-.596 2.347-.912 3.656-.261 1.092.55 1.985 1.634 1.985 1.958 0 3.455-2.066 3.455-5.045C16.557 8.842 14.663 7 11.965 7c-3.131 0-4.972 2.347-4.972 4.775 0 .947.361 1.958.821 2.509.09.108.1.208.072.316-.08.352-.27 1.092-.306 1.245-.046.2-.163.244-.37.145-1.372-.641-2.238-2.654-2.238-4.27 0-3.475 2.526-6.66 7.272-6.66 3.817 0 6.786 2.716 6.786 6.354 0 3.79-2.391 6.85-5.712 6.85-1.119 0-2.165-.577-2.526-1.263 0 0-.55 2.103-.686 2.617-.253.957-.92 2.158-1.371 2.889a10.9 10.9 0 0 0 3.573.487c5.991-.162 10.773-5.163 10.692-11.165-.063-5.85-4.737-10.606-10.575-10.823" clip-rule="evenodd"></path>
</svg>