
<svg xmlns="http://www.w3.org/2000/svg" width="24" height="24" fill="#0000a3" viewBox="0 0 24 24" focusable="false" aria-hidden="true">
  <path fill="#0000a3" d="M18.891 5.41A5.27 5.27 0 0 1 16.495 1h-3.783l-.006 15.158a3.18 3.18 0 0 1-3.173 3.06 3.181 3.181 0 0 1-3.18-3.18 3.183 3.183 0 0 1 3.18-3.18c.327 0 .64.055.938.148V9.144a7 7 0 0 0-.938-.068 6.97 6.97 0 0 0-6.962 6.962 6.96 6.96 0 0 0 2.972 5.7A6.92 6.92 0 0 0 9.533 23a6.97 6.97 0 0 0 6.962-6.962V8.352a9 9 0 0 0 5.262 1.692V6.262a5.23 5.23 0 0 1-2.866-.852"></path>
</svg>