
<svg xmlns="http://www.w3.org/2000/svg" width="24" height="24" fill="#0000a3" viewBox="0 0 24 24" focusable="false" aria-hidden="true">
  <path fill="#0000a3" fill-rule="evenodd" d="M4.3 4.524c-.427.05-1.365.057-2.206.926-.66.665-.874 2.173-.874 2.173S1 9.393 1 11.169v1.662c0 1.77.22 3.546.22 3.546s.214 1.508.874 2.173c.834.869 1.934.843 2.426.933 1.76.166 7.48.217 7.48.217s4.62-.006 7.7-.23c.427-.051 1.365-.058 2.207-.927.66-.664.873-2.172.873-2.172s.22-1.77.22-3.547v-1.661c0-1.77-.22-3.547-.22-3.547s-.213-1.508-.873-2.172c-.835-.87-1.773-.876-2.207-.927C16.613 4.3 12 4.3 12 4.3c-.007 0-4.626 0-7.7.224M9.696 8.7 15.3 12l-5.604 3.3z" clip-rule="evenodd"></path>
</svg>